<?xml version="1.0" encoding="utf-8"?>
<!-- Generator: Adobe Illustrator 16.0.0, SVG Export Plug-In . SVG Version: 6.00 Build 0)  -->
<!DOCTYPE svg PUBLIC "-//W3C//DTD SVG 1.0//EN" "http://www.w3.org/TR/2001/REC-SVG-20010904/DTD/svg10.dtd">
<svg version="1.0" id="Camada_1" xmlns="http://www.w3.org/2000/svg" xmlns:xlink="http://www.w3.org/1999/xlink" x="0px" y="0px"
	 width="150px" height="50px" viewBox="0 0 150 50" enable-background="new 0 0 150 50" xml:space="preserve">
<path fill-rule="evenodd" clip-rule="evenodd" fill="#3C3C3B" d="M19.801,17.255c1.34,0.932,2.542,2.024,3.657,3.21
	c1.424,1.516,2.697,3.146,3.729,4.963c0.518,0.911,1.035,1.817,1.442,2.784c0.413,0.981,0.805,1.968,1.143,2.979
	c0.273,0.821,0.508,1.654,0.708,2.492c0.258,1.075,0.458,2.169,0.603,3.266c0.307,2.326,0.493,4.662,0.437,7.013
	c-0.004,0.15,0,0.302,0,0.519c-0.408-0.211-0.55-0.546-0.684-0.85c-0.642-1.45-2.014-2.031-3.252-2.762
	c-1.997-1.18-4.101-2.154-6.168-3.201c-3.094-1.568-5.996-3.4-8.222-6.128c-1.254-1.538-2.216-3.248-2.956-5.093
	c-0.559-1.395-0.974-2.831-1.318-4.283c-0.193-0.815-0.326-1.655-0.474-2.484c-0.328-1.835-0.53-3.688-0.871-5.52
	c-0.184-0.987-0.292-1.989-0.516-2.966C6.853,10.29,6.658,9.382,6.4,8.488C6.085,7.398,5.718,6.33,5.284,5.286
	C5.182,5.04,5.191,4.725,4.903,4.547C4.771,4.467,4.841,4.271,4.856,4.061c0.428,0.305,0.689,0.691,1.002,1.023
	C7.01,6.305,8.38,7.178,9.953,7.753c1.417,0.518,2.885,0.788,4.375,0.968c1.555,0.188,3.116,0.309,4.675,0.457
	c1.216,0.115,2.435,0.295,3.625,0.566c2.904,0.661,5.52,1.941,7.652,4.047c1.312,1.297,2.324,2.831,3.06,4.544
	c0.464,1.082,0.842,2.191,1.119,3.327c0.213,0.875,0.355,1.771,0.469,2.673c0.318,2.51,0.183,5.023,0.121,7.534
	c-0.013,0.544-0.137,1.095-0.151,1.648c-0.292,0.374-0.206,0.803-0.179,1.223c-0.004,0.121-0.008,0.242-0.012,0.363
	c-0.267,0.1-0.1,0.477-0.369,0.575c-0.008-0.24-0.016-0.479-0.024-0.72c0.08-0.321,0.012-0.647,0.024-0.971
	c0.006-0.162-0.048-0.269-0.218-0.297c-0.007-0.118-0.014-0.236-0.021-0.355c0.09-0.315,0.146-0.625-0.185-0.851
	c-0.004-0.059-0.007-0.116-0.011-0.176c0.096-0.29,0.075-0.551-0.186-0.754c-0.231-1.142-0.61-2.236-1.074-3.299
	c-1.042-2.391-2.495-4.497-4.39-6.298c-1.293-1.229-2.72-2.261-4.277-3.129c-0.878-0.49-1.792-0.901-2.696-1.335
	c-0.081-0.039-0.182-0.035-0.273-0.051c-0.182-0.273-0.455-0.344-0.759-0.348c-0.086-0.016-0.173-0.033-0.259-0.049
	c-0.069-0.236-0.252-0.241-0.447-0.224c-0.068,0.006-0.145,0.059-0.125,0.108C19.485,17.101,19.582,17.257,19.801,17.255z"/>
<g>
	<path fill="#3C3C3B" d="M45.286,13.712v6.654h0.057c0.265-0.796,0.687-1.351,1.265-1.664c0.578-0.312,1.227-0.469,1.948-0.469
		c0.739,0,1.402,0.128,1.99,0.384c0.587,0.256,1.081,0.683,1.479,1.28s0.706,1.394,0.924,2.389c0.218,0.995,0.327,2.232,0.327,3.71
		c0,2.863-0.341,4.968-1.024,6.313s-1.877,2.019-3.583,2.019c-0.91,0-1.64-0.189-2.189-0.568c-0.55-0.379-0.986-0.995-1.308-1.849
		h-0.057v2.104h-4.948V13.712H45.286z M45.343,28.385c0.038,0.551,0.109,0.991,0.213,1.322c0.104,0.332,0.251,0.564,0.441,0.697
		c0.189,0.132,0.427,0.199,0.711,0.199c0.303,0,0.55-0.067,0.739-0.199c0.189-0.133,0.336-0.365,0.441-0.697
		c0.104-0.331,0.175-0.771,0.213-1.322c0.038-0.549,0.057-1.231,0.057-2.047c0-0.834-0.019-1.526-0.057-2.076
		c-0.038-0.549-0.109-0.99-0.213-1.322c-0.104-0.331-0.252-0.563-0.441-0.697c-0.189-0.132-0.437-0.199-0.739-0.199
		c-0.284,0-0.521,0.066-0.711,0.199c-0.189,0.133-0.337,0.366-0.441,0.697c-0.104,0.332-0.175,0.773-0.213,1.322
		c-0.039,0.55-0.057,1.242-0.057,2.076C45.286,27.153,45.305,27.836,45.343,28.385z"/>
	<path fill="#3C3C3B" d="M59.532,29.21c0,0.834,0.143,1.389,0.427,1.664c0.284,0.274,0.606,0.411,0.967,0.411
		c0.455,0,0.811-0.185,1.066-0.554c0.256-0.37,0.384-1.076,0.384-2.118h4.607c-0.039,1.895-0.522,3.321-1.451,4.279
		c-0.929,0.957-2.455,1.436-4.578,1.436c-1.232,0-2.265-0.138-3.1-0.413c-0.834-0.273-1.507-0.729-2.019-1.364
		c-0.512-0.635-0.877-1.464-1.095-2.488c-0.218-1.023-0.327-2.266-0.327-3.725c0-1.479,0.123-2.73,0.37-3.754
		c0.246-1.023,0.635-1.857,1.166-2.502c0.531-0.644,1.208-1.113,2.033-1.407s1.815-0.441,2.972-0.441
		c1.024,0,1.919,0.123,2.688,0.37c0.768,0.246,1.412,0.659,1.934,1.236c0.521,0.579,0.91,1.337,1.166,2.275
		c0.256,0.939,0.383,2.109,0.383,3.512v1.563h-7.592V29.21z M62.049,21.93c-0.199-0.379-0.574-0.569-1.124-0.569
		c-0.531,0-0.896,0.189-1.095,0.569c-0.199,0.379-0.299,0.977-0.299,1.792v0.683h2.815v-0.683
		C62.348,22.907,62.248,22.31,62.049,21.93z"/>
	<path fill="#3C3C3B" d="M69.286,18.632V14.11h5.119v4.521h2.02v3.44h-2.02v7.337c0,0.436,0.1,0.744,0.299,0.924
		c0.199,0.181,0.506,0.271,0.924,0.271h0.797v3.412c-0.475,0-0.949,0.014-1.422,0.042c-0.475,0.028-0.93,0.044-1.365,0.044
		c-0.777,0-1.441-0.033-1.99-0.101c-0.551-0.065-1-0.231-1.352-0.497c-0.351-0.266-0.607-0.658-0.768-1.181
		c-0.162-0.521-0.242-1.208-0.242-2.062v-8.189H67.58v-3.44H69.286z"/>
	<path fill="#3C3C3B" d="M84.783,33.19c-0.039-0.284-0.076-0.587-0.113-0.909h-0.057c-0.285,0.683-0.736,1.194-1.352,1.535
		c-0.617,0.342-1.322,0.512-2.119,0.512c-0.777,0-1.436-0.1-1.975-0.299c-0.541-0.198-0.982-0.497-1.324-0.896
		c-0.34-0.397-0.588-0.872-0.738-1.422c-0.152-0.55-0.229-1.155-0.229-1.819c0-0.721,0.072-1.346,0.215-1.877
		s0.373-0.99,0.695-1.379s0.76-0.721,1.309-0.996c0.549-0.273,1.232-0.506,2.047-0.696l2.02-0.483
		c0.549-0.132,0.938-0.327,1.166-0.583c0.229-0.256,0.342-0.621,0.342-1.095c0-0.948-0.438-1.422-1.309-1.422
		c-0.492,0-0.854,0.138-1.08,0.413c-0.229,0.275-0.352,0.82-0.371,1.635h-4.436c0-1.118,0.199-2.014,0.598-2.687
		s0.891-1.194,1.479-1.564s1.223-0.616,1.904-0.74c0.684-0.123,1.318-0.185,1.906-0.185c0.891,0,1.711,0.071,2.459,0.213
		c0.75,0.142,1.395,0.398,1.934,0.768c0.541,0.37,0.957,0.872,1.252,1.507c0.293,0.635,0.441,1.455,0.441,2.459v7.507
		c0,0.721,0.027,1.355,0.084,1.905c0.059,0.55,0.189,1.023,0.398,1.422h-4.947C84.887,33.751,84.82,33.476,84.783,33.19z
		 M84.299,30.348c0.246-0.417,0.371-1.053,0.371-1.906v-1.848h-0.057c-0.152,0.209-0.385,0.336-0.697,0.384
		s-0.658,0.156-1.039,0.327c-0.396,0.189-0.672,0.441-0.824,0.754s-0.227,0.725-0.227,1.236c0,0.513,0.113,0.92,0.342,1.224
		c0.227,0.303,0.529,0.454,0.91,0.454C83.646,30.973,84.053,30.765,84.299,30.348z"/>
	<path fill="#3C3C3B" d="M96.926,13.712v6.654h0.057c0.266-0.796,0.688-1.351,1.266-1.664s1.227-0.469,1.947-0.469
		c0.74,0,1.402,0.128,1.99,0.384c0.588,0.256,1.082,0.683,1.48,1.28c0.396,0.597,0.705,1.394,0.924,2.389
		c0.217,0.995,0.326,2.232,0.326,3.71c0,2.863-0.342,4.968-1.023,6.313c-0.684,1.346-1.877,2.019-3.584,2.019
		c-0.908,0-1.639-0.189-2.189-0.568c-0.549-0.379-0.986-0.995-1.307-1.849h-0.059v2.104h-4.947V13.712H96.926z M96.982,28.385
		c0.037,0.551,0.109,0.991,0.213,1.322c0.104,0.332,0.252,0.564,0.441,0.697c0.189,0.132,0.426,0.199,0.711,0.199
		c0.303,0,0.549-0.067,0.738-0.199c0.189-0.133,0.336-0.365,0.441-0.697c0.104-0.331,0.174-0.771,0.213-1.322
		c0.037-0.549,0.057-1.231,0.057-2.047c0-0.834-0.02-1.526-0.057-2.076c-0.039-0.549-0.109-0.99-0.213-1.322
		c-0.105-0.331-0.252-0.563-0.441-0.697c-0.189-0.132-0.436-0.199-0.738-0.199c-0.285,0-0.521,0.066-0.711,0.199
		c-0.189,0.133-0.338,0.366-0.441,0.697c-0.104,0.332-0.176,0.773-0.213,1.322c-0.039,0.55-0.057,1.242-0.057,2.076
		C96.926,27.153,96.943,27.836,96.982,28.385z"/>
	<path fill="#3C3C3B" d="M113.787,33.19c-0.037-0.284-0.076-0.587-0.113-0.909h-0.057c-0.285,0.683-0.734,1.194-1.352,1.535
		c-0.615,0.342-1.322,0.512-2.117,0.512c-0.777,0-1.438-0.1-1.977-0.299c-0.541-0.198-0.982-0.497-1.322-0.896
		c-0.342-0.397-0.588-0.872-0.74-1.422s-0.227-1.155-0.227-1.819c0-0.721,0.07-1.346,0.213-1.877s0.373-0.99,0.697-1.379
		c0.32-0.389,0.758-0.721,1.307-0.996c0.551-0.273,1.232-0.506,2.049-0.696l2.018-0.483c0.551-0.132,0.939-0.327,1.166-0.583
		c0.229-0.256,0.342-0.621,0.342-1.095c0-0.948-0.436-1.422-1.309-1.422c-0.492,0-0.852,0.138-1.08,0.413
		c-0.229,0.275-0.352,0.82-0.369,1.635h-4.438c0-1.118,0.199-2.014,0.598-2.687s0.891-1.194,1.479-1.564s1.225-0.616,1.906-0.74
		c0.682-0.123,1.316-0.185,1.904-0.185c0.891,0,1.711,0.071,2.461,0.213c0.748,0.142,1.393,0.398,1.934,0.768
		c0.539,0.37,0.957,0.872,1.25,1.507c0.295,0.635,0.441,1.455,0.441,2.459v7.507c0,0.721,0.029,1.355,0.086,1.905
		s0.189,1.023,0.396,1.422h-4.947C113.891,33.751,113.826,33.476,113.787,33.19z M113.305,30.348
		c0.246-0.417,0.369-1.053,0.369-1.906v-1.848h-0.057c-0.152,0.209-0.385,0.336-0.697,0.384s-0.658,0.156-1.037,0.327
		c-0.398,0.189-0.674,0.441-0.826,0.754c-0.15,0.312-0.227,0.725-0.227,1.236c0,0.513,0.113,0.92,0.342,1.224
		c0.227,0.303,0.529,0.454,0.91,0.454C112.65,30.973,113.057,30.765,113.305,30.348z"/>
	<path fill="#3C3C3B" d="M124.764,30.092c0.057,0.265,0.152,0.483,0.285,0.653c0.246,0.36,0.605,0.54,1.08,0.54
		c0.398,0,0.744-0.113,1.037-0.341c0.295-0.228,0.441-0.55,0.441-0.967c0-0.455-0.186-0.806-0.555-1.052s-0.828-0.465-1.379-0.654
		s-1.143-0.389-1.777-0.598c-0.635-0.208-1.227-0.492-1.777-0.853c-0.549-0.36-1.01-0.839-1.379-1.437
		c-0.369-0.597-0.555-1.379-0.555-2.346c0-0.683,0.123-1.312,0.369-1.891c0.246-0.578,0.621-1.085,1.123-1.521
		c0.504-0.436,1.139-0.777,1.906-1.023c0.768-0.247,1.672-0.37,2.715-0.37c3.85,0,5.773,1.611,5.773,4.834h-4.436
		c0-0.663-0.119-1.113-0.355-1.351c-0.238-0.237-0.574-0.355-1.01-0.355c-0.379,0-0.693,0.104-0.939,0.312
		c-0.246,0.209-0.369,0.503-0.369,0.882c0,0.436,0.186,0.763,0.555,0.981c0.369,0.218,0.828,0.412,1.379,0.583
		c0.551,0.171,1.143,0.351,1.777,0.54c0.635,0.19,1.227,0.459,1.777,0.811c0.549,0.351,1.01,0.824,1.379,1.422
		c0.371,0.597,0.555,1.389,0.555,2.374c0,0.759-0.143,1.45-0.426,2.076c-0.285,0.625-0.688,1.165-1.209,1.621
		c-0.521,0.455-1.166,0.796-1.934,1.023c-0.768,0.227-1.635,0.341-2.602,0.341c-2.143,0-3.684-0.427-4.621-1.279
		c-0.939-0.854-1.408-2.123-1.408-3.811h4.492C124.678,29.542,124.707,29.826,124.764,30.092z"/>
	<path fill="#3C3C3B" d="M138.555,29.21c0,0.834,0.143,1.389,0.428,1.664c0.283,0.274,0.605,0.411,0.967,0.411
		c0.455,0,0.811-0.185,1.066-0.554c0.256-0.37,0.383-1.076,0.383-2.118h4.607c-0.039,1.895-0.521,3.321-1.451,4.279
		c-0.928,0.957-2.455,1.436-4.578,1.436c-1.232,0-2.266-0.138-3.1-0.413c-0.834-0.273-1.506-0.729-2.018-1.364
		c-0.512-0.635-0.877-1.464-1.096-2.488c-0.217-1.023-0.326-2.266-0.326-3.725c0-1.479,0.123-2.73,0.369-3.754
		c0.246-1.023,0.635-1.857,1.166-2.502c0.529-0.644,1.209-1.113,2.033-1.407s1.814-0.441,2.971-0.441c1.023,0,1.92,0.123,2.688,0.37
		c0.768,0.246,1.412,0.659,1.934,1.236c0.521,0.579,0.91,1.337,1.166,2.275c0.256,0.939,0.385,2.109,0.385,3.512v1.563h-7.594V29.21
		z M141.072,21.93c-0.199-0.379-0.574-0.569-1.123-0.569c-0.531,0-0.896,0.189-1.096,0.569c-0.197,0.379-0.299,0.977-0.299,1.792
		v0.683h2.816v-0.683C141.371,22.907,141.271,22.31,141.072,21.93z"/>
</g>
<g>
	<path fill="#9EBE26" d="M44.604,13.001v6.654h0.057c0.266-0.796,0.687-1.351,1.266-1.664c0.578-0.312,1.227-0.469,1.948-0.469
		c0.739,0,1.403,0.128,1.99,0.384c0.588,0.256,1.081,0.683,1.479,1.28s0.706,1.394,0.924,2.389c0.218,0.995,0.327,2.232,0.327,3.71
		c0,2.863-0.341,4.968-1.023,6.313s-1.877,2.019-3.583,2.019c-0.91,0-1.64-0.189-2.19-0.568s-0.985-0.995-1.308-1.848h-0.057v2.104
		h-4.948V13.001H44.604z M44.66,27.674c0.038,0.551,0.109,0.991,0.213,1.322c0.104,0.332,0.251,0.564,0.441,0.697
		c0.189,0.133,0.426,0.199,0.71,0.199c0.303,0,0.55-0.066,0.74-0.199c0.189-0.133,0.336-0.365,0.44-0.697
		c0.104-0.331,0.175-0.771,0.213-1.322c0.038-0.549,0.057-1.231,0.057-2.047c0-0.834-0.019-1.525-0.057-2.076
		c-0.038-0.549-0.109-0.99-0.213-1.322c-0.104-0.331-0.251-0.563-0.44-0.696c-0.19-0.133-0.437-0.199-0.74-0.199
		c-0.284,0-0.521,0.066-0.71,0.199c-0.19,0.133-0.337,0.365-0.441,0.696c-0.104,0.332-0.176,0.773-0.213,1.322
		c-0.039,0.551-0.057,1.242-0.057,2.076C44.604,26.442,44.622,27.125,44.66,27.674z"/>
	<path fill="#9EBE26" d="M58.85,28.499c0,0.834,0.142,1.389,0.427,1.664c0.284,0.274,0.606,0.412,0.967,0.412
		c0.455,0,0.81-0.186,1.066-0.555c0.256-0.37,0.384-1.075,0.384-2.119H66.3c-0.038,1.896-0.521,3.322-1.45,4.28
		c-0.929,0.957-2.455,1.436-4.578,1.436c-1.232,0-2.266-0.138-3.1-0.412c-0.834-0.274-1.507-0.729-2.019-1.365
		c-0.512-0.635-0.877-1.464-1.095-2.488c-0.218-1.023-0.327-2.265-0.327-3.725c0-1.479,0.123-2.73,0.37-3.754
		c0.246-1.023,0.635-1.857,1.166-2.502c0.53-0.644,1.208-1.113,2.033-1.408c0.825-0.293,1.815-0.44,2.972-0.44
		c1.023,0,1.919,0.124,2.687,0.37c0.768,0.247,1.412,0.659,1.934,1.237c0.521,0.579,0.91,1.337,1.166,2.275
		c0.256,0.939,0.384,2.109,0.384,3.512v1.563H58.85V28.499z M61.366,21.219c-0.199-0.379-0.574-0.569-1.123-0.569
		c-0.531,0-0.896,0.189-1.095,0.569c-0.199,0.379-0.298,0.977-0.298,1.791v0.683h2.815V23.01
		C61.665,22.196,61.565,21.599,61.366,21.219z"/>
	<path fill="#9EBE26" d="M68.603,17.921v-4.521h5.118v4.521h2.02v3.44h-2.02v7.336c0,0.438,0.1,0.745,0.299,0.925
		c0.199,0.181,0.508,0.271,0.924,0.271h0.797v3.412c-0.475,0-0.947,0.015-1.422,0.042c-0.475,0.028-0.93,0.044-1.365,0.044
		c-0.777,0-1.439-0.033-1.99-0.101c-0.55-0.066-1-0.231-1.351-0.498c-0.351-0.265-0.607-0.657-0.768-1.18
		c-0.162-0.521-0.242-1.208-0.242-2.062v-8.189h-1.706v-3.44H68.603z"/>
	<path fill="#9EBE26" d="M84.1,32.479c-0.037-0.284-0.076-0.587-0.113-0.909H83.93c-0.285,0.682-0.734,1.194-1.352,1.535
		c-0.615,0.342-1.322,0.512-2.117,0.512c-0.777,0-1.436-0.1-1.977-0.298c-0.541-0.199-0.98-0.498-1.322-0.896
		c-0.342-0.397-0.588-0.872-0.74-1.422s-0.227-1.156-0.227-1.819c0-0.721,0.07-1.346,0.213-1.877s0.375-0.99,0.697-1.379
		s0.758-0.721,1.307-0.996c0.551-0.275,1.232-0.507,2.049-0.697l2.018-0.483c0.551-0.133,0.939-0.327,1.166-0.583
		c0.229-0.256,0.342-0.621,0.342-1.095c0-0.948-0.436-1.422-1.309-1.422c-0.492,0-0.852,0.138-1.08,0.413
		c-0.227,0.275-0.352,0.82-0.369,1.635h-4.436c0-1.119,0.197-2.015,0.596-2.688s0.893-1.194,1.48-1.564
		c0.586-0.37,1.223-0.616,1.904-0.739c0.682-0.123,1.316-0.185,1.904-0.185c0.893,0,1.711,0.071,2.461,0.213
		c0.748,0.142,1.393,0.398,1.934,0.768c0.539,0.37,0.957,0.872,1.25,1.507c0.295,0.635,0.441,1.455,0.441,2.459v7.507
		c0,0.721,0.029,1.355,0.086,1.905s0.189,1.023,0.398,1.422h-4.949C84.205,33.039,84.139,32.765,84.1,32.479z M83.617,29.637
		c0.246-0.417,0.369-1.053,0.369-1.906v-1.848H83.93c-0.152,0.209-0.385,0.336-0.697,0.384s-0.658,0.156-1.037,0.327
		c-0.398,0.189-0.674,0.441-0.824,0.754c-0.152,0.312-0.229,0.725-0.229,1.236s0.113,0.92,0.342,1.224
		c0.227,0.303,0.531,0.454,0.91,0.454C82.963,30.262,83.371,30.054,83.617,29.637z"/>
	<path fill="#9EBE26" d="M96.242,13.001v6.654h0.057c0.266-0.796,0.688-1.351,1.266-1.664c0.578-0.312,1.227-0.469,1.949-0.469
		c0.738,0,1.402,0.128,1.99,0.384c0.586,0.256,1.08,0.683,1.479,1.28c0.396,0.597,0.705,1.394,0.924,2.389
		c0.217,0.995,0.326,2.232,0.326,3.71c0,2.863-0.34,4.968-1.023,6.313c-0.682,1.346-1.877,2.019-3.582,2.019
		c-0.91,0-1.641-0.189-2.189-0.568c-0.551-0.379-0.986-0.995-1.309-1.848h-0.057v2.104h-4.947V13.001H96.242z M96.299,27.674
		c0.039,0.551,0.109,0.991,0.215,1.322c0.104,0.332,0.25,0.564,0.439,0.697s0.428,0.199,0.711,0.199c0.303,0,0.551-0.066,0.74-0.199
		s0.336-0.365,0.439-0.697c0.105-0.331,0.176-0.771,0.215-1.322c0.037-0.549,0.057-1.231,0.057-2.047
		c0-0.834-0.02-1.525-0.057-2.076c-0.039-0.549-0.109-0.99-0.215-1.322c-0.104-0.331-0.25-0.563-0.439-0.696
		s-0.438-0.199-0.74-0.199c-0.283,0-0.521,0.066-0.711,0.199s-0.336,0.365-0.439,0.696c-0.105,0.332-0.176,0.773-0.215,1.322
		c-0.037,0.551-0.057,1.242-0.057,2.076C96.242,26.442,96.262,27.125,96.299,27.674z"/>
	<path fill="#9EBE26" d="M113.105,32.479c-0.039-0.284-0.076-0.587-0.115-0.909h-0.057c-0.283,0.682-0.734,1.194-1.35,1.535
		c-0.617,0.342-1.322,0.512-2.119,0.512c-0.777,0-1.436-0.1-1.977-0.298c-0.539-0.199-0.98-0.498-1.322-0.896
		c-0.342-0.397-0.588-0.872-0.738-1.422c-0.152-0.55-0.229-1.156-0.229-1.819c0-0.721,0.072-1.346,0.213-1.877
		c0.143-0.531,0.375-0.99,0.697-1.379s0.758-0.721,1.309-0.996c0.549-0.275,1.232-0.507,2.047-0.697l2.02-0.483
		c0.549-0.133,0.938-0.327,1.166-0.583c0.227-0.256,0.34-0.621,0.34-1.095c0-0.948-0.436-1.422-1.307-1.422
		c-0.494,0-0.854,0.138-1.082,0.413c-0.227,0.275-0.35,0.82-0.369,1.635h-4.436c0-1.119,0.199-2.015,0.598-2.688
		c0.396-0.673,0.891-1.194,1.479-1.564c0.586-0.37,1.223-0.616,1.904-0.739c0.684-0.123,1.318-0.185,1.906-0.185
		c0.891,0,1.711,0.071,2.459,0.213c0.75,0.142,1.393,0.398,1.934,0.768c0.541,0.37,0.957,0.872,1.252,1.507
		c0.293,0.635,0.441,1.455,0.441,2.459v7.507c0,0.721,0.027,1.355,0.084,1.905s0.189,1.023,0.398,1.422h-4.947
		C113.209,33.039,113.143,32.765,113.105,32.479z M112.621,29.637c0.246-0.417,0.369-1.053,0.369-1.906v-1.848h-0.057
		c-0.152,0.209-0.383,0.336-0.695,0.384c-0.314,0.048-0.66,0.156-1.039,0.327c-0.398,0.189-0.672,0.441-0.824,0.754
		s-0.227,0.725-0.227,1.236s0.113,0.92,0.34,1.224c0.229,0.303,0.531,0.454,0.91,0.454
		C111.967,30.262,112.375,30.054,112.621,29.637z"/>
	<path fill="#9EBE26" d="M124.082,29.38c0.057,0.267,0.15,0.484,0.283,0.654c0.246,0.36,0.607,0.541,1.08,0.541
		c0.398,0,0.744-0.114,1.039-0.342c0.293-0.228,0.439-0.55,0.439-0.967c0-0.455-0.184-0.806-0.553-1.052
		c-0.371-0.246-0.83-0.465-1.379-0.654c-0.551-0.189-1.145-0.389-1.779-0.598c-0.635-0.208-1.227-0.492-1.775-0.853
		c-0.551-0.36-1.01-0.839-1.379-1.436c-0.371-0.597-0.555-1.379-0.555-2.346c0-0.683,0.121-1.312,0.369-1.891
		c0.246-0.578,0.621-1.084,1.123-1.521c0.502-0.436,1.137-0.777,1.904-1.024c0.768-0.246,1.674-0.37,2.717-0.37
		c3.848,0,5.771,1.611,5.771,4.834h-4.436c0-0.663-0.119-1.113-0.355-1.351c-0.238-0.237-0.574-0.355-1.01-0.355
		c-0.379,0-0.691,0.104-0.938,0.313c-0.246,0.209-0.369,0.502-0.369,0.881c0,0.437,0.184,0.764,0.553,0.981
		c0.371,0.218,0.83,0.413,1.379,0.583c0.551,0.171,1.143,0.351,1.779,0.541c0.635,0.189,1.227,0.459,1.775,0.81
		c0.551,0.351,1.01,0.825,1.381,1.422c0.369,0.597,0.553,1.389,0.553,2.375c0,0.758-0.141,1.449-0.426,2.075
		s-0.688,1.166-1.209,1.62c-0.521,0.456-1.166,0.797-1.934,1.024s-1.635,0.341-2.602,0.341c-2.143,0-3.682-0.427-4.621-1.279
		c-0.938-0.854-1.406-2.123-1.406-3.811h4.492C123.996,28.83,124.023,29.115,124.082,29.38z"/>
	<path fill="#9EBE26" d="M137.873,28.499c0,0.834,0.143,1.389,0.426,1.664c0.285,0.274,0.607,0.412,0.967,0.412
		c0.455,0,0.811-0.186,1.066-0.555c0.256-0.37,0.385-1.075,0.385-2.119h4.605c-0.037,1.896-0.521,3.322-1.449,4.28
		c-0.93,0.957-2.455,1.436-4.578,1.436c-1.232,0-2.266-0.138-3.1-0.412s-1.508-0.729-2.02-1.365
		c-0.512-0.635-0.877-1.464-1.096-2.488c-0.217-1.023-0.326-2.265-0.326-3.725c0-1.479,0.123-2.73,0.369-3.754
		c0.246-1.023,0.635-1.857,1.166-2.502c0.531-0.644,1.209-1.113,2.033-1.408c0.826-0.293,1.816-0.44,2.973-0.44
		c1.023,0,1.92,0.124,2.688,0.37c0.768,0.247,1.412,0.659,1.934,1.237c0.52,0.579,0.908,1.337,1.166,2.275
		c0.256,0.939,0.383,2.109,0.383,3.512v1.563h-7.592V28.499z M140.389,21.219c-0.199-0.379-0.572-0.569-1.123-0.569
		c-0.531,0-0.895,0.189-1.094,0.569s-0.299,0.977-0.299,1.791v0.683h2.814V23.01C140.688,22.196,140.588,21.599,140.389,21.219z"/>
</g>
<path fill-rule="evenodd" clip-rule="evenodd" fill="#9EBE26" d="M18.977,16.461c1.34,0.932,2.542,2.025,3.657,3.21
	c1.425,1.516,2.697,3.147,3.729,4.963c0.519,0.911,1.036,1.816,1.443,2.784c0.413,0.981,0.805,1.968,1.143,2.979
	c0.274,0.82,0.508,1.654,0.708,2.491c0.258,1.074,0.458,2.169,0.603,3.267c0.307,2.324,0.492,4.661,0.436,7.012
	c-0.003,0.15,0,0.302,0,0.519c-0.408-0.211-0.55-0.547-0.684-0.85c-0.642-1.45-2.014-2.031-3.252-2.761
	c-1.997-1.181-4.102-2.154-6.168-3.202c-3.094-1.568-5.996-3.399-8.222-6.129c-1.254-1.537-2.215-3.247-2.956-5.091
	c-0.559-1.394-0.974-2.831-1.318-4.284c-0.193-0.815-0.326-1.655-0.474-2.484c-0.328-1.834-0.53-3.688-0.871-5.52
	c-0.184-0.987-0.292-1.99-0.516-2.967c-0.207-0.904-0.402-1.811-0.66-2.706C5.261,6.604,4.894,5.536,4.46,4.492
	C4.358,4.246,4.367,3.931,4.079,3.754C3.947,3.673,4.017,3.478,4.032,3.267C4.46,3.572,4.722,3.959,5.034,4.291
	c1.151,1.22,2.522,2.094,4.095,2.669c1.416,0.518,2.884,0.788,4.374,0.968c1.555,0.188,3.116,0.309,4.675,0.457
	c1.215,0.116,2.434,0.295,3.625,0.566c2.905,0.662,5.521,1.941,7.652,4.047c1.312,1.296,2.324,2.831,3.06,4.544
	c0.464,1.082,0.842,2.191,1.119,3.327c0.213,0.875,0.354,1.772,0.469,2.674c0.318,2.51,0.183,5.023,0.122,7.534
	c-0.013,0.544-0.137,1.094-0.151,1.648c-0.292,0.373-0.206,0.803-0.179,1.223c-0.004,0.121-0.008,0.242-0.012,0.362
	c-0.267,0.1-0.1,0.478-0.369,0.575c-0.008-0.239-0.016-0.479-0.024-0.719c0.08-0.322,0.012-0.647,0.024-0.972
	c0.006-0.163-0.049-0.27-0.219-0.296c-0.007-0.118-0.014-0.236-0.021-0.355c0.09-0.316,0.147-0.625-0.185-0.852
	c-0.004-0.059-0.008-0.116-0.011-0.176c0.097-0.289,0.075-0.551-0.186-0.754c-0.231-1.141-0.61-2.236-1.073-3.3
	c-1.042-2.389-2.495-4.496-4.39-6.297c-1.293-1.229-2.72-2.261-4.277-3.129c-0.878-0.49-1.792-0.901-2.695-1.336
	c-0.081-0.039-0.182-0.035-0.274-0.051c-0.182-0.273-0.455-0.344-0.759-0.347c-0.087-0.016-0.173-0.033-0.259-0.049
	c-0.068-0.236-0.252-0.242-0.447-0.224c-0.068,0.006-0.145,0.059-0.125,0.108C18.661,16.308,18.758,16.463,18.977,16.461z"/>
</svg>
